<svg xmlns="http://www.w3.org/2000/svg" width="48" height="48" fill="none" viewBox="0 0 48 48">
  <g id="Group 12">
    <g id="Vector" fill="#0d6efd">
      <path
        d="M33.84 37.386H21.148q-5.037 0-7.495-1.972-2.418-1.973-2.418-6.074V17.034q0-4.102 2.418-6.075 2.458-1.972 7.495-1.972h10.074q.765 0 1.088.355.363.316.363 1.065v4.773q0 .75-.363 1.104-.322.316-1.088.316H22.84q-1.25 0-1.854.512-.605.474-.605 1.46v9.427q0 .985.444 1.459.483.473 1.41.473h3.909v-6.153q0-.75.322-1.065.363-.354 1.128-.355h6.246q.766 0 1.088.355.363.316.363 1.065v12.188q0 .75-.362 1.104-.323.316-1.089.316m-10.96-3.55h8.019v-7.928h-.403v7.533H22.88q-4.07 0-5.48-1.064-1.37-1.065-1.37-3.63V17.705q0-2.603 1.249-3.668 1.248-1.104 4.795-1.104h6.971v-.395h-6.971q-3.869 0-5.158 1.183t-1.29 3.984v11.044q0 1.381.283 2.366a3.33 3.33 0 0 0 1.128 1.578q.806.592 2.216.868t3.627.276" />
      <path
        d="M23.036 39.013q-5.28 0-7.818-2.09-2.498-2.091-2.498-6.35V18.265q0-4.26 2.499-6.35 2.538-2.09 7.817-2.09H33.11q.968 0 1.41.433.444.435.444 1.38v4.773q0 .947-.444 1.38-.443.435-1.41.435h-8.38q-1.008 0-1.532.394-.524.355-.524 1.183v9.427q0 .789.323 1.183.363.355 1.128.355h3.506V25.01q0-.947.443-1.38.444-.435 1.41-.435h6.246q.968 0 1.41.434.444.435.444 1.38v12.188q0 .948-.443 1.38-.444.435-1.41.435zm12.693-.395q.766 0 1.088-.315.363-.355.363-1.105V25.011q0-.75-.363-1.065-.322-.355-1.088-.355h-6.245q-.766 0-1.129.355-.322.315-.322 1.065v6.153h-3.909q-.927 0-1.41-.474-.444-.473-.444-1.459v-9.427q0-.985.605-1.459.604-.513 1.854-.513h8.381q.765 0 1.088-.315.363-.355.363-1.105V11.64q0-.75-.363-1.065-.322-.355-1.088-.355H23.036q-5.037 0-7.495 1.972-2.418 1.973-2.418 6.074v12.306q0 4.103 2.418 6.074 2.458 1.972 7.495 1.972zm-10.96-3.55q-2.217 0-3.627-.276t-2.216-.867a3.33 3.33 0 0 1-1.129-1.578q-.282-.986-.282-2.367V18.938q0-2.8 1.29-3.984 1.29-1.183 5.158-1.183h6.971v.394h-6.971q-3.546 0-4.796 1.104-1.248 1.065-1.249 3.669V29.98q0 2.565 1.37 3.63 1.41 1.064 5.48 1.064h7.617v-7.533h.403v7.928z" />
    </g>
    <path id="Rectangle 8" stroke="#0d6efd" stroke-width="2" d="M1 1h46v46H1z" />
  </g>
</svg>
